# xmcd
# 
# Track frame offsets:
#     150
#     4635
#     22572
#     35272
#     51180
#     74520
#     97457
#     107765
#     112205
#     157130
#     177555
#     195535
#     243305
# 
# Disc length: 3295
# 
# Revision: 2
# Processed by: cddbd v1.5.2PL0 Copyright (c) Steve Scherf et al.
# Submitted via: fre:ac v1.0.17
# 
DISCID=b10cdd0d
DTITLE=Trouvere Quartet with Toshiyuki Honda - HIGH FIVE
DYEAR=1997
DGENRE=Jazz
TTITLE0=Prologue
TTITLE1=Higgledy-Piggledy
TTITLE2=Saxophone Paradise I
TTITLE3=Saxophone Paradise II
TTITLE4=Saxophone Paradise III
TTITLE5=Lush Life
TTITLE6=Oleo
TTITLE7=High Five
TTITLE8=Music for Cinema
TTITLE9=D-Walk
TTITLE10=My Romance
TTITLE11=Spain
TTITLE12=Epilogue
EXTD=YEAR: 1997
EXTT0=
EXTT1=
EXTT2=
EXTT3=
EXTT4=
EXTT5=
EXTT6=
EXTT7=
EXTT8=
EXTT9=
EXTT10=
EXTT11=
EXTT12=
PLAYORDER=
